<?xml version="1.0" encoding="UTF-8"?>
<svg version="1.1" xmlns="http://www.w3.org/2000/svg" width="1024" height="1024">
<path d="M0 0 C0.78383057 0.00563965 1.56766113 0.0112793 2.37524414 0.01708984 C17.48200498 0.32876033 29.87108837 5.19695214 40.88671875 15.6328125 C48.11850556 23.62154963 53.50318659 32.56970163 55.3125 43.3125 C55.48450928 44.32650879 55.65651855 45.34051758 55.83374023 46.38525391 C56.3809556 50.87403836 56.43793953 55.23070062 56.41015625 59.74609375 C56.40803383 61.0629995 56.40803383 61.0629995 56.40586853 62.4065094 C56.40030821 65.18770882 56.38776321 67.96882526 56.375 70.75 C56.36997987 72.64518112 56.36541786 74.54036352 56.36132812 76.43554688 C56.3503518 81.06122948 56.33311482 85.68685071 56.3125 90.3125 C68.03947799 90.29760977 79.76602928 90.25594684 91.49278259 90.18040943 C96.93844068 90.14616615 102.38381901 90.12103354 107.82958984 90.11694336 C113.08830898 90.11265478 118.34639731 90.08414506 123.60491943 90.03906822 C125.60785239 90.0261112 127.61086091 90.02177915 129.61383057 90.02634621 C132.42683434 90.03126493 135.23800346 90.00510364 138.05078125 89.97192383 C139.28401375 89.98486229 139.28401375 89.98486229 140.54216003 89.99806213 C146.73076414 89.87625201 150.33872229 87.84184557 155.3125 84.3125 C165.75514877 79.33981011 181.02509148 79.77913395 191.90625 83.3515625 C207.03319183 89.39251654 217.90245459 101.24667504 224.5 115.9609375 C229.21412439 129.24207641 228.48867628 143.77180459 222.87109375 156.60546875 C214.55876692 173.05654713 202.74082415 182.18055218 185.45703125 187.9296875 C174.08195599 189.96021095 162.67610568 188.55800106 152.38308048 183.33309555 C146.80212437 180.60231109 142.2938235 179.72777929 136.12084961 179.76660156 C134.81677658 179.75109505 134.81677658 179.75109505 133.48635864 179.73527527 C130.64566008 179.70604859 127.80568025 179.70435239 124.96484375 179.703125 C122.98229124 179.68812973 120.99975115 179.67139977 119.01722717 179.65301514 C113.82397867 179.60948069 108.63089865 179.58937339 103.4375 179.57427979 C98.12815445 179.55465847 92.81898952 179.51269415 87.50976562 179.47265625 C77.11073299 179.39750482 66.71174107 179.34712221 56.3125 179.3125 C56.32821045 180.54178223 56.3439209 181.77106445 56.36010742 183.03759766 C56.41501877 187.66334297 56.44906938 192.28906041 56.47729492 196.91503906 C56.49224372 198.90499744 56.5126102 200.89492368 56.53881836 202.88476562 C56.79880315 223.15338392 55.09363744 240.8837354 40.3125 256.3125 C39.6525 256.3125 38.9925 256.3125 38.3125 256.3125 C37.9825 257.3025 37.6525 258.2925 37.3125 259.3125 C35.265625 260.99609375 35.265625 260.99609375 32.5625 262.75 C31.70140625 263.32621094 30.8403125 263.90242188 29.953125 264.49609375 C16.30190491 271.76842256 2.13992686 270.88328428 -12.91015625 270.80859375 C-15.46357769 270.80874897 -18.01699936 270.81024172 -20.57041931 270.81300354 C-25.90358887 270.81438285 -31.23648048 270.80234986 -36.56958008 270.77905273 C-42.70396013 270.75243797 -48.8379617 270.75070541 -54.97237974 270.7624411 C-60.91564553 270.77328124 -66.85879761 270.76687892 -72.80206108 270.75288582 C-75.31249028 270.7483935 -77.82293054 270.74801494 -80.33336067 270.75195122 C-83.85015238 270.75488517 -87.36634142 270.7382523 -90.88305664 270.71655273 C-91.90417542 270.72105438 -92.92529419 270.72555603 -93.97735596 270.73019409 C-109.51637667 270.57213692 -121.09636031 265.35239073 -132.36328125 254.79296875 C-140.92003631 245.66096966 -146.835894 233.17952206 -146.80102539 220.5222168 C-146.80094986 219.60163986 -146.80087433 218.68106293 -146.80079651 217.73258972 C-146.79563522 216.7522023 -146.79047394 215.77181488 -146.78515625 214.76171875 C-146.78303383 213.24080376 -146.78303383 213.24080376 -146.78086853 211.68916321 C-146.77528328 208.45941179 -146.76273345 205.22973038 -146.75 202 C-146.7449831 199.80664163 -146.74042052 197.61328217 -146.73632812 195.41992188 C-146.72531868 190.05075747 -146.7085952 184.68163374 -146.6875 179.3125 C-158.41447799 179.32739023 -170.14102928 179.36905316 -181.86778259 179.44459057 C-187.31344068 179.47883385 -192.75881901 179.50396646 -198.20458984 179.50805664 C-203.46330898 179.51234522 -208.72139731 179.54085494 -213.97991943 179.58593178 C-215.98285239 179.5988888 -217.98586091 179.60322085 -219.98883057 179.59865379 C-222.80183434 179.59373507 -225.61300346 179.61989636 -228.42578125 179.65307617 C-229.24793625 179.64445053 -230.07009125 179.63582489 -230.91716003 179.62693787 C-236.29270767 179.73274462 -239.57562984 180.99996163 -243.95373535 184.13016224 C-252.21224971 189.76204162 -265.28992898 189.21827855 -274.75 187.87890625 C-286.96430454 185.31835543 -299.51735574 177.97047974 -306.84521484 167.68798828 C-313.74310839 157.07561615 -317.21349359 147.58362691 -317.0625 134.875 C-317.07410156 133.90240234 -317.08570313 132.92980469 -317.09765625 131.92773438 C-317.04106811 117.80899435 -311.4798027 105.54961191 -301.8046875 95.30859375 C-291.04431525 85.16366715 -277.18108035 80.85489938 -262.65234375 81.09765625 C-255.41594131 81.48977658 -249.04082538 82.60691497 -243.09216309 86.84281921 C-238.47171924 89.75241307 -234.69971439 90.02758533 -229.33398438 89.97192383 C-228.43548767 89.98240753 -227.53699097 89.99289124 -226.61126709 90.00369263 C-223.66757016 90.03229068 -220.7250601 90.02616903 -217.78125 90.01953125 C-215.73000628 90.03265551 -213.67877546 90.04796196 -211.62756348 90.06535339 C-206.24846551 90.10513081 -200.8697062 90.1153892 -195.49047852 90.11938477 C-189.99354832 90.12872983 -184.49681597 90.16615204 -179 90.20117188 C-168.22917585 90.26567393 -157.4585004 90.2989746 -146.6875 90.3125 C-146.70844727 89.05816162 -146.72939453 87.80382324 -146.75097656 86.51147461 C-146.82424618 81.78698478 -146.86961095 77.06254339 -146.90722656 72.33764648 C-146.92714639 70.30598461 -146.95429238 68.27437856 -146.98925781 66.24291992 C-147.30197329 47.58576285 -146.15006057 31.26417549 -132.79614258 16.95996094 C-127.91606279 11.94658228 -123.06363495 8.16243911 -116.6875 5.3125 C-115.7284375 4.85617187 -115.7284375 4.85617187 -114.75 4.390625 C-108.69954731 1.62619403 -103.15278398 1.13995474 -96.5703125 1.07421875 C-95.79493134 1.066147 -95.01955017 1.05807526 -94.22067261 1.04975891 C-92.58512574 1.03597361 -90.94955077 1.02522681 -89.31396484 1.01733398 C-87.64981593 1.00580221 -85.98570436 0.98533131 -84.32177734 0.95581055 C-81.90436944 0.91297586 -79.48805353 0.89694629 -77.0703125 0.88671875 C-75.96684982 0.86045662 -75.96684982 0.86045662 -74.84109497 0.83366394 C-69.36358784 0.85642388 -66.21846335 2.21857214 -61.6875 5.3125 C-57.55581898 9.77036637 -56.36428083 13.13455535 -56.4765625 19.25390625 C-56.81093499 22.51713408 -57.84867806 24.61556116 -59.6875 27.3125 C-64.27644493 31.02627091 -67.3899008 31.80810062 -73.24609375 31.81640625 C-74.30716087 31.8305381 -74.30716087 31.8305381 -75.3896637 31.84495544 C-77.6350747 31.87344733 -79.87942358 31.8766904 -82.125 31.875 C-84.36685023 31.87862485 -86.6079326 31.88834375 -88.84962463 31.91575623 C-90.88587227 31.94008912 -92.92234752 31.94247435 -94.95874023 31.94360352 C-100.30178042 32.47220521 -104.11688801 34.07062075 -108.375 37.4375 C-113.4819569 43.78668965 -115.85129242 51.03659522 -115.76928711 59.15942383 C-115.75949074 60.56161919 -115.75949074 60.56161919 -115.74949646 61.99214172 C-115.73806107 62.99118027 -115.72662567 63.99021881 -115.71484375 65.01953125 C-115.70219512 67.15429524 -115.68983433 69.28906095 -115.67773438 71.42382812 C-115.65295419 74.77455055 -115.62499818 78.12518253 -115.59155273 81.47583008 C-115.56121509 84.71956942 -115.54353308 87.96319465 -115.52734375 91.20703125 C-115.50715431 92.69648003 -115.50715431 92.69648003 -115.48655701 94.21601868 C-115.45323196 103.52930048 -116.75344337 110.58867606 -123.03592873 117.8767643 C-128.98733337 123.0504097 -138.45254499 122.76257141 -145.88525391 122.76416016 C-147.49213829 122.78168335 -147.49213829 122.78168335 -149.13148499 122.79956055 C-152.64243716 122.83292287 -156.15296618 122.84385754 -159.6640625 122.8515625 C-162.11925398 122.86375401 -164.57444401 122.87624037 -167.02963257 122.88900757 C-172.16204156 122.9114216 -177.29430265 122.92103168 -182.42675781 122.92333984 C-188.99528033 122.92863581 -195.56257175 122.98007616 -202.1307621 123.04285622 C-207.19577881 123.08374614 -212.26049756 123.09298219 -217.32566452 123.09345627 C-219.74735127 123.09883323 -222.16904137 123.11566624 -224.59056473 123.14430618 C-227.977464 123.18104541 -231.36154781 123.17331345 -234.74853516 123.15478516 C-235.74199448 123.17523895 -236.7354538 123.19569275 -237.75901794 123.21676636 C-244.27501392 123.11902377 -247.49217766 121.61803964 -252.06763268 116.95223045 C-255.77948941 113.19485821 -259.93512402 112.9981572 -265 112.9375 C-271.64208576 113.06508809 -276.50669745 114.0175148 -281.2109375 118.890625 C-285.30447024 124.14359765 -286.96487778 129.52383564 -286.625 136.1875 C-285.7316568 142.71883137 -283.53750696 147.82195338 -278.51953125 152.20703125 C-273.30692098 155.7456395 -268.73703449 157.20642683 -262.43359375 156.83984375 C-257.16631346 155.82834611 -251.41693335 153.72025433 -248.20683289 149.25108337 C-244.19948491 146.16749795 -240.10606256 146.76367486 -235.18676758 146.81079102 C-233.58360687 146.80268654 -233.58360687 146.80268654 -231.94805908 146.79441833 C-228.40910273 146.78189554 -224.87095457 146.79845203 -221.33203125 146.81640625 C-218.87066098 146.81625129 -216.40929047 146.81476278 -213.94792175 146.81199646 C-208.78377522 146.81061067 -203.6199058 146.8231965 -198.45581055 146.84594727 C-191.84947804 146.87425751 -185.24360868 146.87161699 -178.63724232 146.85885715 C-173.55073626 146.85188521 -168.46433636 146.85970789 -163.37784386 146.87211418 C-160.94308569 146.87661919 -158.50831608 146.87697382 -156.0735569 146.87304878 C-152.66053771 146.87012373 -149.24814494 146.8867089 -145.83520508 146.90844727 C-144.83591476 146.90394562 -143.83662445 146.89944397 -142.80705261 146.89480591 C-135.38616905 146.97295184 -128.39557542 148.01764338 -122.3125 152.5625 C-114.42859782 160.8218261 -115.55753299 172.800577 -115.51171875 183.5078125 C-115.48853994 185.62631223 -115.46442343 187.74480188 -115.43945312 189.86328125 C-115.4042867 193.15908819 -115.37493103 196.45451594 -115.36157227 199.75048828 C-115.34605796 202.96171048 -115.30585964 206.17187256 -115.26171875 209.3828125 C-115.26458138 210.84873337 -115.26458138 210.84873337 -115.26750183 212.3442688 C-115.13077035 220.03955804 -113.28162068 225.24051498 -108.3125 231.125 C-100.60709035 237.54617471 -92.30741808 237.46794008 -82.74829102 237.39770508 C-81.77500854 237.39452271 -80.80172607 237.39134033 -79.7989502 237.38806152 C-76.59637121 237.3755228 -73.39392918 237.35463734 -70.19140625 237.33203125 C-69.09352217 237.32507421 -67.99563808 237.31811718 -66.86448479 237.31094933 C-61.05860285 237.27363018 -55.25281405 237.22965828 -49.44702148 237.18041992 C-43.46074243 237.13100704 -37.47459695 237.10485907 -31.48816013 237.08398914 C-26.8734115 237.06359681 -22.25892324 237.02571361 -17.64433098 236.9831295 C-15.43765342 236.96582429 -13.23091376 236.95510248 -11.02417183 236.95118141 C-7.93434223 236.94407992 -4.84568898 236.91211435 -1.75610352 236.87426758 C-0.39910591 236.87945656 -0.39910591 236.87945656 0.98530579 236.88475037 C6.34634228 236.78796701 10.06936505 235.87825554 14.72116184 233.16775036 C16.3125 232.3125 16.3125 232.3125 18.3125 232.3125 C18.59927612 231.72409332 18.88605225 231.13568665 19.18151855 230.52944946 C20.3125 228.3125 20.3125 228.3125 21.36633301 226.60995483 C24.96145932 220.50698045 24.85076587 214.7935628 24.78125 207.8515625 C24.79182434 206.07294327 24.79182434 206.07294327 24.8026123 204.25839233 C24.83197723 199.21413735 24.8155006 194.17027396 24.80322266 189.12597656 C24.80083206 185.43010718 24.82181298 181.734855 24.84375 178.0390625 C24.82677063 176.34953964 24.82677063 176.34953964 24.80944824 174.62588501 C24.86308527 166.15972509 26.34360732 159.18855434 31.5625 152.375 C38.38169313 147.26060515 45.10094959 146.86257748 53.32739258 146.86083984 C54.94124092 146.84331665 54.94124092 146.84331665 56.58769226 146.82543945 C60.12756373 146.7919763 63.66701575 146.78112931 67.20703125 146.7734375 C69.68031457 146.76124839 72.15359644 146.7487621 74.62687683 146.73599243 C79.80572823 146.71354785 84.98443279 146.70396557 90.16333008 146.70166016 C96.78093775 146.69637802 103.39731549 146.64503607 110.01459217 146.58214378 C115.1217677 146.54117057 120.22864863 146.53201715 125.33597374 146.53154373 C127.7747182 146.5261769 130.21346657 146.50938851 132.65204811 146.48069382 C155.75836725 146.23145409 155.75836725 146.23145409 163.20951843 152.61367798 C166.62788216 155.37508667 170.2695682 156.17210533 174.5625 156.75 C180.97640328 156.00171128 187.00408174 153.23276464 191.3125 148.3125 C195.61801236 141.85423147 196.26259456 135.95203581 195.3125 128.3125 C193.0422062 121.97068756 189.53139763 117.52858029 183.53515625 114.37890625 C178.28405677 112.03930747 173.84030079 111.73926898 168.3125 113.3125 C160.26679408 116.45243483 160.26679408 116.45243483 154.3125 122.3125 C152.30837059 122.69561005 152.30837059 122.69561005 149.79794312 122.70690918 C148.8475415 122.71825897 147.89713989 122.72960876 146.91793823 122.74130249 C145.87171295 122.73837189 144.82548767 122.73544128 143.74755859 122.73242188 C142.09853546 122.74512619 142.09853546 122.74512619 140.41619873 122.75808716 C136.76432875 122.78157666 133.11287747 122.78247607 129.4609375 122.78125 C126.92705108 122.78834698 124.39316629 122.79604529 121.85928345 122.80432129 C116.53781042 122.81779549 111.21649274 122.81950337 105.89501953 122.81347656 C99.75668476 122.80685173 93.61895335 122.82963073 87.4807409 122.86679029 C81.56793131 122.90127906 75.65530633 122.90781613 69.74238968 122.90370178 C67.23142327 122.90539385 64.72044901 122.91504463 62.20954514 122.93284607 C58.69048464 122.95503833 55.17286516 122.9453287 51.65380859 122.92773438 C50.6197287 122.94099762 49.5856488 122.95426086 48.52023315 122.96792603 C41.87123328 122.89088092 37.46030319 121.61782974 32.3125 117.3125 C30.47265625 115.1796875 30.47265625 115.1796875 29.375 113.1875 C28.99472656 112.52492188 28.61445312 111.86234375 28.22265625 111.1796875 C26.60646541 107.86406853 26.17967713 105.19229898 26.13891602 101.55664062 C26.12542618 100.59133423 26.11193634 99.62602783 26.09803772 98.63146973 C26.08238014 97.06592346 26.08238014 97.06592346 26.06640625 95.46875 C26.03344207 93.24999644 26.00023089 91.03124653 25.96679688 88.8125 C25.91959007 85.32164253 25.8752071 81.83079705 25.83569336 78.33984375 C25.79563115 74.96598199 25.74414546 71.59243424 25.69140625 68.21875 C25.67878502 66.67749451 25.67878502 66.67749451 25.66590881 65.10510254 C25.52955075 51.51888269 25.52955075 51.51888269 19.5 39.8125 C18.83355469 39.0184375 18.16710937 38.224375 17.48046875 37.40625 C13.1657868 33.23927788 9.86863402 31.94435981 3.875 31.90625 C2.03808594 31.87337891 2.03808594 31.87337891 0.1640625 31.83984375 C-1.10695313 31.83082031 -2.37796875 31.82179688 -3.6875 31.8125 C-6.2084635 31.79460269 -8.72937652 31.76385589 -11.25 31.71875 C-12.36503906 31.71166016 -13.48007812 31.70457031 -14.62890625 31.69726562 C-19.2658425 31.11394734 -22.7097144 28.88584272 -25.6875 25.3125 C-27.49186328 19.89941015 -27.57007991 13.75257388 -25.625 8.375 C-18.86883534 1.18295375 -9.40123925 -0.07158564 0 0 Z " fill="#9E21A5" transform="translate(552.6875,380.6875)"/>
<path d="M0 0 C2.5 2.1875 2.5 2.1875 5 5 C5.97839844 6.10021484 5.97839844 6.10021484 6.9765625 7.22265625 C11.50889569 12.5543282 14.41042323 17.17578248 16 24 C16.226875 24.804375 16.45375 25.60875 16.6875 26.4375 C18.3499388 40.0694982 15.33018843 52.66420731 7.02734375 63.59765625 C2.02623194 69.586642 -2.75927392 73.16366462 -10 76 C-10.70640625 76.31710937 -11.4128125 76.63421875 -12.140625 76.9609375 C-21.20225637 80.61915165 -32.83533417 80.31554463 -42 77 C-54.4863846 71.54322524 -63.56651724 64.5036891 -69.46875 51.8515625 C-73.41817321 40.42644537 -73.83753623 27.23612139 -69 16 C-62.89919643 5.04114914 -53.28897505 -3.70967735 -41.21484375 -7.40625 C-27.01011375 -11.21421995 -11.76562823 -9.16361429 0 0 Z " fill="#E10280" transform="translate(653,663)"/>
<path d="M0 0 C9.22079999 7.03617968 15.56704976 17.80761905 17.35546875 29.3125 C18.37571725 43.89988277 14.01905173 55.57309189 5.01953125 66.83984375 C-3.60425329 76.42882072 -16.04170367 79.81302209 -28.4609375 80.9375 C-39.09410575 80.8595061 -49.43343654 76.31564331 -57.39453125 69.3828125 C-66.44271865 59.89095469 -71.32286326 49.72920071 -71.7734375 36.625 C-71.47600695 24.76082585 -67.63088005 13.54815273 -59.4375 4.76953125 C-57.51103467 3.03866489 -55.55082575 1.46522119 -53.4609375 -0.0625 C-52.4709375 -0.805 -51.4809375 -1.5475 -50.4609375 -2.3125 C-34.49232553 -11.62752365 -15.03145147 -10.16210804 0 0 Z " fill="#DA32B4" transform="translate(652.4609375,297.0625)"/>
<path d="M0 0 C0.76054687 0.43441406 1.52109375 0.86882812 2.3046875 1.31640625 C13.46874971 8.21406758 19.9781982 18.29773578 23 31 C24.50114605 45.59099651 21.83101333 58.04837358 13 70 C6.91005685 76.25781295 0.36289783 80.49560279 -8 83 C-8.59683594 83.19078125 -9.19367188 83.3815625 -9.80859375 83.578125 C-23.11226134 86.13925887 -35.32849755 83.44804749 -46.45703125 75.9453125 C-56.8405073 68.00219257 -61.87169758 56.68732221 -64 44 C-65.16487178 32.6225537 -62.52170139 21.43108315 -56 12 C-53.75 9.375 -53.75 9.375 -51 7 C-50.37480469 6.43410156 -49.74960937 5.86820312 -49.10546875 5.28515625 C-35.91763169 -5.95420758 -15.2310669 -8.79580062 0 0 Z " fill="#02B9E9" transform="translate(411,293)"/>
<path d="M0 0 C8.0872083 6.63487411 13.19266982 15.69407906 15 26 C16.26289368 39.14242108 14.34228905 50.80354187 6.0625 61.5625 C-3.47332393 72.40994283 -14.6373113 77.1642993 -28.875 78.3125 C-39.90454295 77.95670829 -51.19101757 73.88305925 -59.25 66.3125 C-69.09615079 55.69059187 -72.6835061 44.13908658 -72.34765625 29.78515625 C-71.46353895 20.159205 -68.53727251 12.13586613 -62 5 C-61.21302734 4.07767578 -61.21302734 4.07767578 -60.41015625 3.13671875 C-44.53404945 -14.30832095 -17.7698443 -13.5309083 0 0 Z " fill="#1648D2" transform="translate(419,664)"/>
<path d="M0 0 C7.32716305 4.91206462 11.58326403 11.16638131 13.6640625 19.734375 C14.80705411 27.66808145 12.94154451 33.69910538 8.453125 40.26171875 C3.60376603 46.27892793 -1.3902445 49.18489392 -8.875 50.875 C-17.93239152 51.56626863 -25.07764715 48.71608146 -32 43 C-37.67022171 37.89538644 -39.60505489 31.4980853 -40.4375 24.125 C-40.14725283 17.54166656 -37.74478246 11.10268655 -33.5625 6.0625 C-32.716875 5.381875 -31.87125 4.70125 -31 4 C-30.236875 3.29875 -29.47375 2.5975 -28.6875 1.875 C-20.0723077 -4.13559928 -9.3145476 -5.24763245 0 0 Z " fill="#F5047A" transform="translate(688,601)"/>
<path d="M0 0 C0.99 0.5775 1.98 1.155 3 1.75 C4.546875 2.5853125 4.546875 2.5853125 6.125 3.4375 C11.26418196 7.57118983 14.45840956 13.07649487 15.78125 19.55078125 C16.52210196 26.99898938 15.71237245 34.7245446 11 40.75 C2.88001544 48.47221505 -3.26639122 51.32043767 -14.48828125 51.12109375 C-22.32223345 50.29325675 -27.68483203 45.98544437 -32.55859375 39.9921875 C-36.75374365 33.46639877 -38.05793061 25.87563281 -36.49609375 18.30859375 C-34.29672076 9.87556931 -30.27226195 5.18215747 -22.8671875 0.73046875 C-16.54025193 -2.59183424 -6.6080416 -2.73846769 0 0 Z " fill="#1451D6" transform="translate(352,600.25)"/>
<path d="M0 0 C4.99293683 3.75898448 8.17975004 9.76947772 9.3125 15.875 C10.14447835 24.64642892 9.5335699 31.59714498 4.3125 38.875 C-0.30102014 44.16039201 -5.87967847 47.24789284 -12.84375 48.15625 C-20.16425124 48.46556695 -26.89090904 46.72180535 -33 42.6875 C-38.89960617 36.51349354 -42.07461248 30.18669188 -43.0625 21.625 C-42.34865681 14.48656815 -39.94856783 6.9606989 -34.6875 1.875 C-34.0275 1.875 -33.3675 1.875 -32.6875 1.875 C-32.6875 1.215 -32.6875 0.555 -32.6875 -0.125 C-21.5701795 -6.75263338 -11.15912177 -6.95040128 0 0 Z " fill="#0396E4" transform="translate(357.6875,384.125)"/>
<path d="M0 0 C6.03681623 3.48050968 10.32813751 7.95519242 13.0625 14.375 C14.23867207 21.95477556 14.59329939 29.18775271 10.625 36 C5.60860995 42.8128 0.15258544 48.26260409 -8.375 50 C-16.47114125 50.85296134 -22.83479852 49.46347385 -29.3515625 44.4921875 C-34.67281589 39.62380674 -37.89094102 34.21901406 -38.71875 27.00390625 C-38.99305035 17.8491321 -36.69168214 11.57416413 -30.44140625 4.8671875 C-21.86708918 -2.88049408 -10.63504202 -4.75182728 0 0 Z " fill="#EC179E" transform="translate(687.375,382)"/>
<path d="M0 0 C4.56915037 2.93938973 6.77936795 6.03538504 9.08984375 10.93359375 C9.08984375 11.59359375 9.08984375 12.25359375 9.08984375 12.93359375 C8.09984375 12.93359375 7.10984375 12.93359375 6.08984375 12.93359375 C5.51234375 12.02609375 4.93484375 11.11859375 4.33984375 10.18359375 C1.70252808 6.37413778 -0.73137741 4.75045411 -4.91015625 2.93359375 C-5.7609375 2.55976563 -6.61171875 2.1859375 -7.48828125 1.80078125 C-12.18948867 0.60937937 -16.4795072 0.96582278 -21.28515625 1.30859375 C-22.67541016 1.39367187 -22.67541016 1.39367187 -24.09375 1.48046875 C-26.36676503 1.62106762 -28.63852588 1.77238127 -30.91015625 1.93359375 C-21.28956075 -5.99493721 -10.67125029 -5.95756918 0 0 Z " fill="#0DB7EF" transform="translate(355.91015625,383.06640625)"/>
<path d="M0 0 C-2 3 -2 3 -4.828125 3.6953125 C-5.95734375 3.83710938 -7.0865625 3.97890625 -8.25 4.125 C-9.36890625 4.27195312 -10.4878125 4.41890625 -11.640625 4.5703125 C-12.74921875 4.71210938 -13.8578125 4.85390625 -15 5 C-17.00146225 5.32443794 -19.00199834 5.65489062 -21 6 C-14.33573556 0.11976667 -8.54812017 -0.30408333 0 0 Z " fill="#1FC0F2" transform="translate(346,379)"/>
<path d="M0 0 C0.66 0.33 1.32 0.66 2 1 C-1.3 4.3 -4.6 7.6 -8 11 C-8 7.0234755 -6.61988497 5.9109833 -4 3 C-1.75 1.1875 -1.75 1.1875 0 0 Z " fill="#336DDE" transform="translate(327,602)"/>
</svg>
